<?xml version="1.0" encoding="utf-8"?>
<!-- Generator: Adobe Illustrator 21.0.2, SVG Export Plug-In . SVG Version: 6.00 Build 0)  -->
<svg version="1.1" id="Layer_1" xmlns="http://www.w3.org/2000/svg" xmlns:xlink="http://www.w3.org/1999/xlink" x="0px" y="0px"
	 viewBox="0 0 517 242.9" style="enable-background:new 0 0 517 242.9;" xml:space="preserve">
<style type="text/css">
	.st0{fill:#545454;}
	.st1{fill:#146499;}
</style>
<g id="XMLID_2_">
	<polygon id="XMLID_3_" class="st0" points="31,235.4 152.3,144.8 268.1,241.9 213.6,241.9 243,232.9 151.9,159.1 	"/>
	<rect id="XMLID_5_" x="129.9" y="187.5" class="st0" width="17.9" height="17.1"/>
	<rect id="XMLID_7_" x="152.2" y="187.5" class="st0" width="17.1" height="17.1"/>
	<rect id="XMLID_8_" x="129.9" y="209.3" class="st0" width="17.7" height="17.1"/>
	<rect id="XMLID_9_" x="151.6" y="209.3" class="st0" width="17.7" height="17.1"/>
	<rect id="XMLID_6_" x="68.8" y="147.9" class="st0" width="25" height="8"/>
	<rect id="XMLID_41_" x="456.8" y="165.9" class="st0" width="25" height="8"/>
	<polygon id="XMLID_10_" class="st1" points="0.1,239.9 71,184 71,156.1 90,156.1 90,179.5 92.6,179.5 92.6,167.8 152.1,119.6 
		281,226.4 334.1,226.7 418.6,146.8 459.7,187.4 459.7,201 464.1,201 463.3,174.8 475.5,174.8 476.5,203.1 517,242.5 496.1,242.5 
		419.7,167.4 338,240.7 275.7,240.4 152.9,138.7 18.4,239.3 	"/>
	<polygon id="XMLID_11_" class="st1" points="197.2,147.5 281.2,148.6 249.5,182.5 304.3,138 360.1,180.9 327,147.9 407.4,148.8 
		361.6,191.3 305.6,152.7 248.8,192.2 	"/>
	<rect id="XMLID_12_" x="293.3" y="176.2" class="st0" width="9" height="9"/>
	<rect id="XMLID_14_" x="305.5" y="176.4" class="st0" width="9" height="9"/>
	<rect id="XMLID_15_" x="305.5" y="187.7" class="st0" width="9" height="9"/>
	<rect id="XMLID_16_" x="293.3" y="187.7" class="st0" width="9" height="9"/>
	<rect id="XMLID_40_" x="409.5" y="206.7" class="st0" width="9.6" height="9.6"/>
	<rect id="XMLID_39_" x="422.5" y="206.8" class="st0" width="9.6" height="9.6"/>
	<rect id="XMLID_38_" x="422.5" y="219" class="st0" width="9.6" height="9.6"/>
	<rect id="XMLID_37_" x="409.5" y="219" class="st0" width="9.6" height="9.6"/>
	<polygon id="XMLID_18_" class="st0" points="285.3,143.9 281.8,143.9 281.8,32.2 319.1,0.4 352.8,16.8 352.8,21 319.9,5 
		321.4,139.1 303.7,125.8 	"/>
	<path id="XMLID_13_" class="st0" d="M278.2,64.1l-0.6-61.2l18.6,9.2c0,0,0.4-1.7,0-3L277.6,0l-20.9,17.7v30L278.2,64.1z"/>
	<path id="XMLID_17_" class="st0" d="M206.3,65.7l8.5,5.4v-5.3l21-10.5c0,0,0.1-2.6-0.8-3.3L206.3,65.7z"/>
	<polygon id="XMLID_20_" class="st0" points="206.4,80.6 213.8,85.4 213.8,80.6 236.2,70.3 235.7,66.6 	"/>
	<polyline id="XMLID_21_" class="st0" points="216,100.2 216.1,95.1 237.1,85.8 236.8,80.9 207.1,95.2 215.8,100.8 	"/>
	<path id="XMLID_19_" class="st0" d="M215.3,114.9l0.8-5l20.3-10.3c0,0,0.4-1.7,0-3.9L207.2,110L215.3,114.9z"/>
	<path id="XMLID_22_" class="st0" d="M206.2,124.7l7.5,5.5v-5.6l21.3-9.7c0,0,0.6-2.3,0-4.1L206.2,124.7z"/>
	<path id="XMLID_24_" class="st0" d="M234.8,125.9v3.6l-17.6,9.5c0,0-3.8,2.1-11.2,1L234.8,125.9z"/>
	<path id="XMLID_23_" class="st0" d="M205.9,60.3c0,0-0.8-3.5,0.1-4.5l35.7-16.2l36.7,32.6l-0.1,70.8h-37.8l0.5-97.8L205.9,60.3z"/>
	<polygon id="XMLID_26_" class="st0" points="353.4,135.9 344.8,141 344.8,135.8 324.8,125.3 324.8,121.1 	"/>
	<path id="XMLID_25_" class="st0" d="M351.5,29.8l-7.3,5c0,0-1.4-2.9-2-5.6l-20.4-10.2V15L351.5,29.8z"/>
	<path id="XMLID_27_" class="st0" d="M344.3,50.2l8.5-5.4l-28.6-14.3c0,0-1.1,2.5,0,4.2l20.3,9.9L344.3,50.2z"/>
	<path id="XMLID_28_" class="st0" d="M352.8,59.4l-8.1,5.5v-5.1l-20.6-10.3c0,0-1.1-2.5,0.5-4.4L352.8,59.4z"/>
	<path id="XMLID_29_" class="st0" d="M352.9,74.9c0,0-6,3.1-7.6,5c0,0-0.8-2.6-0.6-5.6l-20.9-10.2c0,0-0.3-2.6,0.7-4.2L352.9,74.9z"
		/>
	<path id="XMLID_30_" class="st0" d="M345.4,95.1l8.2-5.3l-28.5-14.5c0,0-1.4,2.8,0,4.5l20.4,9.9L345.4,95.1z"/>
	<path id="XMLID_31_" class="st0" d="M345.9,125.8l8.2-5.4l-29-14.6c0,0-1,1.8,0,4.1l20.9,11.2L345.9,125.8z"/>
	<path id="XMLID_33_" class="st0" d="M353.6,105l-8.1,5.3c0,0-0.6-2.5-0.4-5.3l-20.4-10.4c0,0-0.5-2.3,0.4-4.2L353.6,105z"/>
	<polygon id="XMLID_34_" class="st0" points="346.7,241.9 419.8,173.8 488,239 420.1,186.7 369.1,233.5 402.5,241.9 	"/>
</g>
</svg>
